# xmcd CD database file
# Copyright (C) 1995-1998 Ti Kan
#
# Track frame offsets:
#	150
#	14792
#	38842
#	58002
#	70632
#	89865
#	103642
#	121385
#	134630
#	145052
#	161317
#	177947
#	190560
#	199902
#	212755
#	224180
#	239000
#	252997
#
# Disc length: 3543 seconds
#
# Revision: 1
# Processed by: cddbd v1.4PL0 Copyright (c) Steve Scherf et al.
# Submitted via: CDex 1.30
#
DISCID=1c0dd512
DTITLE=Various Artist - The Classic Country Collection - CD 1
DYEAR=1996
DGENRE=Country
TTITLE0=Emmylou Harris - High Powered Love
TTITLE1=The Band - Atlantic City
TTITLE2=Jimmy Buffet - Margaritaville
TTITLE3=Nilsson - Everybody's Talkin'
TTITLE4=Nanci Griffith - rom a Distance
TTITLE5=Glen Campbell - Southern Nights
TTITLE6=Michael Johnson - The Moon Is Over Her Shoulder
TTITLE7=Bobby Gentry - I'll Never Fall In Love Again
TTITLE8=Charley Pride - Is Anyone Going to San Antone
TTITLE9=Emmylou Harris - Crescent City
TTITLE10=Charlie Daniels - The Devil Went Down to Georgia
TTITLE11=Merle Haggard - Okie from Muskogee
TTITLE12=Charlie Pride - Honkey Tonk Blues
TTITLE13=George Hamilton IV - Early Morning Rain
TTITLE14=Jerry Reed - Guitar Man
TTITLE15=Crystal Gayle - Cry Me A River
TTITLE16=Johnny Cash and June Carter - It Ain't Me Babe
TTITLE17=Tom T. Hall - Foggy Mountain Breakdown
EXTD=YEAR: 1996  ID3G:   2
EXTT0=
EXTT1=
EXTT2=
EXTT3=
EXTT4=
EXTT5=
EXTT6=
EXTT7=
EXTT8=
EXTT9=
EXTT10=
EXTT11=
EXTT12=
EXTT13=
EXTT14=
EXTT15=
EXTT16=
EXTT17=
PLAYORDER=
